HIERARCHY
ROOT Bip001_Pelvis
{
  OFFSET 34.4345 95.6767 -26.8758
  CHANNELS 6 Xposition Yposition Zposition Zrotation Xrotation Yrotation
  JOINT Bip001_Spine
  {
    OFFSET 1.4188e-005 10.2191 -0.0116013
    CHANNELS 3 Zrotation Xrotation Yrotation
    JOINT Bip001_L_Thigh
    {
      OFFSET 11.0458 -10.2192 0.0116197
      CHANNELS 3 Zrotation Xrotation Yrotation
      JOINT Bip001_L_Calf
      {
        OFFSET -0.707118 -44.0221 0.360014
        CHANNELS 3 Zrotation Xrotation Yrotation
        JOINT Bip001_L_Foot
        {
          OFFSET -0.651902 -40.5938 -3.56146
          CHANNELS 3 Zrotation Xrotation Yrotation
          JOINT Bip001_L_Toe0
          {
            OFFSET 0.0530839 -10.2181 13.1504
            CHANNELS 3 Zrotation Xrotation Yrotation
            End Site
            {
              OFFSET -1.02532e-005 0 7.55606
            }
          }
        }
      }
    }
    JOINT Bip001_R_Thigh
    {
      OFFSET -11.0458 -10.2191 0.0115893
      CHANNELS 3 Zrotation Xrotation Yrotation
      JOINT Bip001_R_Calf
      {
        OFFSET 0.706994 -44.0221 0.35984
        CHANNELS 3 Zrotation Xrotation Yrotation
        JOINT Bip001_R_Foot
        {
          OFFSET 0.651786 -40.5938 -3.5613
          CHANNELS 3 Zrotation Xrotation Yrotation
          JOINT Bip001_R_Toe0
          {
            OFFSET -0.0531479 -10.2181 13.1504
            CHANNELS 3 Zrotation Xrotation Yrotation
            End Site
            {
              OFFSET -1.02894e-005 0 7.55606
            }
          }
        }
      }
    }
    JOINT Bip001_Spine1
    {
      OFFSET 1.87041e-005 14.5736 1.08638
      CHANNELS 3 Zrotation Xrotation Yrotation
      JOINT Bip001_Spine2
      {
        OFFSET 2.24614e-005 14.5058 -1.69078
        CHANNELS 3 Zrotation Xrotation Yrotation
        JOINT Bip001_Neck
        {
          OFFSET 2.20278e-005 15.3945 -0.489414
          CHANNELS 3 Zrotation Xrotation Yrotation
          JOINT Bip001_L_Clavicle
          {
            OFFSET 6.06036 -0.000579998 0.00836775
            CHANNELS 3 Zrotation Xrotation Yrotation
            JOINT Bip001_L_UpperArm
            {
              OFFSET 11.5509 -0.0600302 0.00193952
              CHANNELS 3 Zrotation Xrotation Yrotation
              JOINT Bip001_L_Forearm
              {
                OFFSET 25.9523 0.0806089 -2.15551
                CHANNELS 3 Zrotation Xrotation Yrotation
                JOINT Bip001_L_Hand
                {
                  OFFSET 32.2475 0.153767 1.63968
                  CHANNELS 3 Zrotation Xrotation Yrotation
                  JOINT Bip001_L_Finger0
                  {
                    OFFSET 6.04639 -2.20976 5.90322
                    CHANNELS 3 Zrotation Xrotation Yrotation
                    End Site
                    {
                      OFFSET 4.22375 -1.43895 0.606485
                    }
                  }
                  JOINT Bip001_L_Finger1
                  {
                    OFFSET 11.0826 -0.704819 -0.198153
                    CHANNELS 3 Zrotation Xrotation Yrotation
                    End Site
                    {
                      OFFSET 6.20027 -0.397518 -0.0787166
                    }
                  }
                }
              }
            }
          }
          JOINT Bip001_R_Clavicle
          {
            OFFSET -6.06037 -0.000563197 0.00835105
            CHANNELS 3 Zrotation Xrotation Yrotation
            JOINT Bip001_R_UpperArm
            {
              OFFSET -11.5509 -0.0599978 0.00190698
              CHANNELS 3 Zrotation Xrotation Yrotation
              JOINT Bip001_R_Forearm
              {
                OFFSET -25.9523 0.0806822 -2.15589
                CHANNELS 3 Zrotation Xrotation Yrotation
                JOINT Bip001_R_Hand
                {
                  OFFSET -32.2475 0.153859 1.63989
                  CHANNELS 3 Zrotation Xrotation Yrotation
                  JOINT Bip001_R_Finger0
                  {
                    OFFSET -6.04641 -2.20976 5.90317
                    CHANNELS 3 Zrotation Xrotation Yrotation
                    End Site
                    {
                      OFFSET -4.22376 -1.43895 0.60647
                    }
                  }
                  JOINT Bip001_R_Finger1
                  {
                    OFFSET -11.0826 -0.704794 -0.198182
                    CHANNELS 3 Zrotation Xrotation Yrotation
                    End Site
                    {
                      OFFSET -6.20028 -0.397504 -0.0787333
                    }
                  }
                }
              }
            }
          }
          JOINT Bip001_Head
          {
            OFFSET 1.09673e-005 11.2744 2.05948
            CHANNELS 3 Zrotation Xrotation Yrotation
            End Site
            {
              OFFSET 2.89576e-005 20.8808 -2.77728e-005
            }
          }
        }
      }
    }
  }
}
MOTION
Frames:	13
Frame Time:	0.04
32.4466 95.5206 -31.0243 -1.34738 -3.15705 1.83133 -0.024949 2.67579 -0.310835 8.42352 -2.79159 13.3657 0.578008 11.841 -5.17771 0.976179 -5.56477 0.0387948 2.04729 -5.41205 -1.2916 -2.69406 -1.23504 -2.61816 0.384918 10.0969 -1.30411 -6.72605 -6.70805 -5.34894 2.69486 -9.34255 3.29101 -0.035146 5.3475 -0.621583 -0.0354245 5.34751 -0.621846 3.56011 -3.96368 -1.64941 -25.9465 5.3715 -2.12439 -55.6532 35.5911 4.46197 10.8005 -9.27857 -24.0513 9.62694 0.151841 -2.17075 1.59028e-015 -6.36111e-015 -3.18055e-015 3.18055e-015 0 -0 20.8372 11.7535 20.6124 58.7967 33.5507 -5.45535 -25.6266 18.682 16.6237 0.0614371 -7.91999 6.2302 -3.18055e-015 0 -0 0 0 -0 -1.15835 2.72756 -0.384658 
32.5055 95.5109 -30.9902 -1.2734 -3.20886 1.76346 -0.0520009 2.68457 -0.314495 8.32719 -2.70036 13.89 0.631012 11.821 -5.78126 1.40125 -5.42487 0.0387857 2.05585 -5.62512 -1.20348 -2.81087 -1.24238 -2.45956 0.457016 10.2355 -1.25259 -6.78196 -6.75915 -5.45057 2.69775 -9.34238 3.30955 -0.0932663 5.36683 -0.627683 -0.0914659 5.36683 -0.62748 3.57431 -4.17366 -1.63026 -25.8382 5.6231 -2.26112 -55.9192 35.9762 4.63907 11.1916 -9.5226 -23.9813 9.33502 -3.1923e-005 -2.35972 3.53112e-031 -3.18055e-015 6.36111e-015 -1.59028e-015 -6.36111e-015 3.18055e-015 20.8001 11.9377 20.5284 58.8281 33.5477 -5.42823 -25.7573 18.9165 16.6052 -0.192581 -8.30213 6.27205 4.41391e-032 -3.18055e-015 7.95139e-016 -3.18055e-015 -3.18056e-015 -0 -1.21506 2.90863 -0.350293 
32.55 95.5038 -30.9638 -1.30035 -3.26403 1.75939 -0.0487799 2.68669 -0.347811 8.34724 -2.73437 13.8664 0.609362 12.0356 -5.65372 1.69211 -5.46788 0.040672 2.21015 -5.70973 -1.32461 -2.82279 -1.17475 -2.39813 0.466451 10.2182 -1.22362 -6.80041 -6.75067 -5.45249 2.69736 -9.34235 3.31254 -0.0802739 5.39232 -0.694736 -0.0807352 5.39232 -0.694647 4.45397 -3.41333 -1.63147 -26.5797 4.93645 -2.724 -55.9893 36.3756 4.7709 11.4316 -9.72911 -24.0515 9.26809 -0.0287073 -2.43403 -4.77083e-015 3.18055e-015 -0 -3.18055e-015 6.36111e-015 -3.18055e-015 19.7909 11.1901 20.8386 58.799 33.4495 -5.48455 -25.868 18.8445 16.7624 -0.334547 -8.58937 5.9536 3.18055e-015 6.36111e-015 2.38542e-015 -2.64834e-031 6.36111e-015 2.38542e-015 -2.41156 1.74014 0.165292 
32.5681 95.4934 -30.9902 -1.55436 -3.14676 1.9174 0.0150533 2.68408 -0.436268 8.61179 -3.13475 13.1929 0.453831 12.5536 -4.99039 1.57439 -5.73715 0.0455195 2.18169 -5.74243 -1.33065 -2.61741 -1.14928 -2.34848 0.461067 9.93139 -1.25323 -6.81709 -6.57059 -5.50283 2.69649 -9.34231 3.31618 0.0492214 5.36799 -0.875086 0.0499328 5.36799 -0.874826 5.04036 -3.16595 -1.56467 -27.0034 4.75683 -3.04133 -55.8579 36.6807 4.80123 11.4523 -9.9255 -24.2506 9.25784 0.0605864 -2.38546 -6.36111e-015 -6.36111e-015 3.18055e-015 -6.36111e-015 -3.18056e-015 6.36111e-015 19.1716 10.886 20.7791 58.6237 33.3264 -5.58457 -26.0438 18.9349 16.972 -0.737121 -9.21861 5.51593 0 3.18055e-015 -0 -0 -3.18056e-015 -0 -3.11973 1.15849 0.560824 
32.6638 95.4967 -30.926 -1.57322 -3.17472 1.56375 0.0157551 2.69507 -0.45855 8.59878 -2.95378 13.7291 0.428468 12.5238 -5.27002 1.41137 -5.84596 0.0471647 1.97656 -5.70808 -1.1942 -2.69794 -1.15889 -2.16686 0.477191 9.94663 -1.21663 -6.76411 -6.55478 -5.34793 2.69787 -9.34577 3.3339 0.0532192 5.38993 -0.919373 0.0532195 5.38994 -0.919375 5.05739 -3.11628 -1.4359 -26.8735 4.81066 -3.34644 -55.6975 36.838 4.82971 11.5614 -9.85696 -24.2975 9.1625 0.00313881 -2.45487 3.18055e-015 0 -3.18055e-015 3.18055e-015 3.18056e-015 -3.18055e-015 19.1559 10.8105 20.733 58.6251 32.7138 -5.92416 -26.1176 16.0564 17.0703 1.25988 -9.30028 5.86353 -8.82781e-032 3.18055e-015 1.59028e-015 -8.82782e-032 3.18056e-015 1.59028e-015 -3.09906 0.989804 0.680919 
32.7271 95.4964 -30.7836 -1.73382 -3.41934 0.980566 0.0562381 2.74479 -0.478187 8.73055 -2.54153 14.4232 0.34472 12.6399 -5.32987 1.91585 -5.91347 0.0485796 2.18318 -5.86516 -1.31755 -2.62314 -0.873353 -1.92107 0.380061 9.74778 -1.06003 -6.72897 -6.47095 -5.07367 2.69745 -9.35304 3.3461 0.136304 5.48908 -0.961346 0.135961 5.48908 -0.961057 5.07699 -3.14831 -1.3079 -26.7896 4.9435 -3.63428 -55.4518 36.7918 4.82966 11.5237 -9.80934 -24.3406 8.99841 0.0977586 -2.26888 -4.77083e-015 -6.36111e-015 6.36111e-015 -1.59028e-015 -1.27222e-014 3.18055e-015 18.9711 10.746 20.5864 58.6765 32.1212 -6.1571 -26.1816 12.6752 17.1889 3.60792 -9.42717 6.3804 -3.18055e-015 3.18055e-015 -0 -3.18055e-015 3.18056e-015 -0 -3.15537 1.0134 0.823355 
32.9954 95.4761 -30.7087 -1.47125 -3.33489 0.144722 0.0230688 2.73232 -0.494695 8.20395 -2.24627 14.9619 0.473675 12.4333 -5.02599 1.7738 -6.07775 0.0499759 2.06287 -5.76699 -1.20626 -3.20643 -1.29448 -1.90775 0.452271 10.3264 -0.83664 -6.61568 -6.8061 -4.40283 2.69882 -9.3754 3.3644 0.0683029 5.46432 -0.992157 0.0690955 5.46432 -0.992104 5.19192 -3.21034 -1.10629 -26.726 5.1473 -4.04301 -55.3316 36.5863 4.86931 11.7774 -8.96974 -24.2558 8.96026 -0.192562 -2.30163 -3.53112e-031 -6.36111e-015 -3.18055e-015 -3.18055e-015 -6.36111e-015 -0 18.5975 10.6072 20.1815 59.0025 31.3888 -6.56078 -26.6708 12.1969 17.6905 2.94581 -10.7123 5.98507 -3.18055e-015 -3.18055e-015 1.59028e-015 -3.18055e-015 3.18056e-015 3.18055e-015 -3.32569 1.2577 1.09318 
33.2862 95.4615 -30.6058 -1.32367 -3.33951 -0.886985 0.0168451 2.72177 -0.555754 7.76184 -1.81669 15.9203 0.505338 12.218 -4.93842 2.4891 -5.8131 0.0515046 2.22263 -6.19117 -1.32132 -3.65936 -1.64076 -2.03749 0.323044 10.8548 -0.401736 -6.53424 -7.04571 -3.4714 2.71986 -9.44603 3.39009 0.0618394 5.44337 -1.11422 0.0610463 5.44345 -1.11428 5.30266 -3.12437 -0.841634 -26.5023 5.2361 -4.58053 -55.415 36.0526 5.05145 11.6957 -8.38957 -24.1522 8.99673 -0.222564 -2.53397 -1.59028e-015 -3.18055e-015 3.18055e-015 -1.59028e-015 -6.36111e-015 -0 18.4155 10.2699 19.5068 58.1462 27.7011 -6.0386 -26.2544 13.2514 18.7465 1.48371 -12.3373 6.42539 0 0 -0 -0 0 1.59028e-015 -3.57359 1.24591 1.4438 
33.5994 95.4399 -30.501 -1.43438 -3.47023 -2.38562 0.0875822 2.73385 -0.637412 7.59753 -1.39525 16.9845 0.461597 12.6081 -4.48361 2.19974 -6.53719 0.055854 1.93963 -5.92813 -1.0723 -3.85117 -1.98086 -1.73512 -0.0143015 11.335 0.159829 -6.46681 -7.05481 -2.59811 2.80702 -9.70427 3.48271 0.206029 5.46754 -1.2812 0.20603 5.46753 -1.28121 5.30183 -3.01391 -0.387991 -26.3493 5.3021 -4.91852 -55.3654 36.1556 5.29203 11.4752 -8.21404 -24.0598 8.74916 -0.234407 -2.66766 -3.18055e-015 6.36111e-015 -0 -3.18055e-015 6.36111e-015 -3.18055e-015 18.4847 9.80501 18.4044 57.948 25.2082 -6.32102 -26.7078 13.2401 19.5907 -0.378487 -14.048 6.05826 -1.59028e-015 -3.18055e-015 -0 -1.59028e-015 0 -3.18055e-015 -3.83473 1.11744 1.94397 
34.1068 95.3551 -30.4973 -1.35985 -3.38744 -4.63638 0.154457 2.71658 -0.693621 6.98967 -1.10903 17.32 0.235195 12.9237 -2.41227 2.95235 -6.64966 0.0642059 2.26273 -6.34259 -1.29592 -4.37745 -3.10114 -0.296783 -0.129313 12.5201 0.601641 -6.52035 -7.19481 -2.09984 2.99074 -10.1363 3.50614 0.342444 5.43108 -1.39695 0.342444 5.43107 -1.39695 5.03207 -2.86333 0.328962 -25.792 5.45979 -5.61575 -56.0074 36.4974 5.95948 11.8779 -7.12869 -23.938 9.10867 -0.378469 -2.85533 7.06225e-031 6.36111e-015 -6.36111e-015 3.18055e-015 0 -7.95139e-015 18.6936 9.20693 17.1444 59.2528 23.4933 -8.16263 -28.6727 9.34487 20.1807 -0.794677 -15.4728 4.89588 3.18055e-015 3.18055e-015 -0 3.18055e-015 3.18056e-015 -0 -3.93156 1.01416 2.59398 
34.7019 95.2106 -30.4226 -1.302 -3.51097 -7.11544 0.243695 2.7656 -0.771041 6.29082 -0.801002 17.3737 -0.0693954 13.5959 -0.035784 3.87725 -6.93877 0.0803374 2.37791 -6.70142 -1.29807 -4.86968 -4.29712 0.646895 -0.563903 14.0508 1.27704 -6.45311 -7.5091 -1.15923 3.15576 -10.6135 3.67052 0.5256 5.52765 -1.55659 0.525599 5.52764 -1.55658 4.75222 -2.79727 1.04941 -25.0961 5.71293 -6.44958 -56.8032 36.848 6.70602 11.7836 -7.86192 -24.2008 8.43988 -0.0964122 -2.61079 0 3.18055e-015 -0 -0 -3.18056e-015 -0 19.0768 8.72715 15.8919 59.3942 17.7582 -9.81627 -30.1015 6.32828 22.5613 -1.04237 -17.1724 4.69303 -3.18055e-015 6.36111e-015 -0 -3.18055e-015 6.36111e-015 -0 -4.1049 0.855334 3.25639 
35.4195 95.025 -30.2687 -1.1557 -3.64111 -9.81615 0.316758 2.82692 -0.875757 5.39854 -0.390744 17.937 -0.3578 14.1159 2.00662 4.54172 -7.40632 0.103333 2.28213 -6.98419 -1.12804 -5.47735 -5.60207 1.71869 -1.01779 15.6382 1.82615 -6.28455 -7.92689 -0.0431408 3.32189 -11.0897 3.83801 0.678031 5.6486 -1.7704 0.678031 5.6486 -1.7704 4.52854 -2.61565 1.89526 -24.4869 5.95612 -7.62963 -57.6481 37.1089 7.80955 11.9476 -8.15143 -24.7009 8.13512 -0.0235751 -2.6557 -1.27222e-014 -9.54166e-015 1.59028e-015 -1.27222e-014 -6.36111e-015 1.59028e-015 19.5954 8.05785 14.3509 59.1951 11.3428 -11.9747 -32.1137 4.49072 26.0949 -2.40627 -19.685 3.95177 -3.97569e-016 -4.77083e-015 -3.18055e-015 2.38542e-015 -3.18056e-015 -0 -4.25638 0.703011 4.05643 
36.2364 94.8203 -30.0353 -1.01533 -3.79028 -12.7598 0.406699 2.9176 -1.01766 4.46243 -0.00860275 18.2629 -0.851783 14.7823 4.93067 4.56234 -8.36939 0.154831 2.17678 -6.81365 -1.13724 -6.16801 -6.91358 2.95865 -1.39933 17.0455 2.4769 -6.08976 -8.31804 1.10381 3.49021 -11.5617 4.00061 0.866976 5.82743 -2.06007 0.866977 5.82744 -2.06007 4.30957 -2.5379 2.93064 -23.6973 6.33219 -8.97078 -58.3738 36.5962 8.63393 11.76 -8.24187 -25.4524 8.3655 0.0151391 -2.73676 3.18055e-015 -6.36111e-015 -4.77083e-015 3.18055e-015 -3.18056e-015 -3.18055e-015 19.7651 7.38617 12.6828 57.985 3.60775 -13.4155 -32.8984 3.56816 29.9332 -4.4073 -21.8932 3.25406 -3.97569e-016 2.38542e-015 -0 -5.1684e-015 2.38542e-015 -0 -4.6178 0.621723 5.08744 
